<?xml version="1.0" standalone="no"?><!DOCTYPE svg PUBLIC "-//W3C//DTD SVG 1.1//EN" "http://www.w3.org/Graphics/SVG/1.1/DTD/svg11.dtd"><svg t="1587020042068" class="icon" viewBox="0 0 1024 1024" version="1.1" xmlns="http://www.w3.org/2000/svg" p-id="2087" xmlns:xlink="http://www.w3.org/1999/xlink" width="128" height="128"><defs><style type="text/css"></style></defs><path d="M255.51 375.75c-82.94 0-150.41-67.47-150.41-150.41S172.58 74.93 255.51 74.93s150.41 67.47 150.41 150.41-67.47 150.41-150.41 150.41z m0-250.68c-55.29 0-100.27 44.98-100.27 100.27s44.98 100.27 100.27 100.27 100.27-44.98 100.27-100.27-44.98-100.27-100.27-100.27z" fill="#7dc5eb" p-id="2088"></path><path d="M865.36 854.96H713c-84.66 0-153.54-68.88-153.54-153.54V350.68c0-53.56-43.58-97.14-97.14-97.14h-81.47v-56.4h81.47c84.66 0 153.54 68.88 153.54 153.54v350.74c0 53.56 43.58 97.14 97.14 97.14h152.36v56.4z" fill="#7dc5eb" p-id="2089"></path><path d="M793.36 947.93c-5.73 0-11.46-2.23-15.76-6.67-8.43-8.7-8.21-22.59 0.5-31.02L864.05 827l-92.91-87.32c-8.83-8.3-9.26-22.18-0.96-31 8.3-8.83 22.18-9.26 31-0.96l109.66 103.07c4.37 4.11 6.87 9.82 6.91 15.82 0.04 6-2.37 11.75-6.67 15.92l-102.47 99.24a21.869 21.869 0 0 1-15.25 6.16z" fill="#7dc5eb" p-id="2090"></path></svg>