<?xml version="1.0" standalone="no"?><!DOCTYPE svg PUBLIC "-//W3C//DTD SVG 1.1//EN" "http://www.w3.org/Graphics/SVG/1.1/DTD/svg11.dtd"><svg t="1585532386739" class="icon" viewBox="0 0 1024 1024" version="1.1" xmlns="http://www.w3.org/2000/svg" p-id="4860" xmlns:xlink="http://www.w3.org/1999/xlink" width="48" height="48"><defs><style type="text/css"></style></defs><path d="M899.3 750h-776c-35.8 0-65-29.2-65-65V341c0-35.8 29.2-65 65-65h776c35.8 0 65 29.2 65 65v344c0 35.8-29.1 65-65 65z m-776-464c-30.3 0-55 24.7-55 55v344c0 30.3 24.7 55 55 55h776c30.3 0 55-24.7 55-55V341c0-30.3-24.7-55-55-55h-776z" fill="#7dc5eb" p-id="4861"></path><path d="M899.3 755h-776c-38.6 0-70-31.4-70-70V341c0-38.6 31.4-70 70-70h776c38.6 0 70 31.4 70 70v344c0 38.6-31.4 70-70 70z m-836-70c0 33.1 26.9 60 60 60h776c33.1 0 60-26.9 60-60V341v344c0 33.1-26.9 60-60 60h-776c-33.1 0-60-26.9-60-60z m60-394c-27.6 0-50 22.4-50 50v344c0 27.6 22.4 50 50 50h776c27.6 0 50-22.4 50-50V341c0-27.6-22.4-50-50-50h-776z" fill="#7dc5eb" p-id="4862"></path></svg>